<?xml version="1.0" encoding="utf-8"?>
<!-- Generator: Adobe Illustrator 19.2.0, SVG Export Plug-In . SVG Version: 6.00 Build 0)  -->
<svg version="1.1" baseProfile="tiny" id="Layer_1" xmlns="http://www.w3.org/2000/svg" xmlns:xlink="http://www.w3.org/1999/xlink"
	 x="0px" y="0px" viewBox="0 0 200.8 50" xml:space="preserve">
<path fill="#98D6E4" d="M193.3,10.7h7.5L192,38.2h-7.5L193.3,10.7z"/>
<path fill="#98D6E4" d="M182.9,10.7h7.5l-8.8,27.5h-7.5L182.9,10.7z"/>
<rect id="_x2E__2_" x="52.3" y="0.3" fill="#FFFFFF" width="6.2" height="6.6"/>
<g>
	<path id="D_2_" fill="#FFFFFE" d="M23.7,37.7h-6.3v-1.3c0,0-3.9,1.9-7.1,1.9C3.1,38.2,0,34.2,0,24.2c0-9.5,3.6-13.8,11.3-13.8
		c2.1,0,5.8,0.6,6.1,0.7V0.3h6.3V37.7z M17.4,31.4v-15c-0.3,0-3.4-0.5-5.7-0.5c-3.8,0-5.4,2.4-5.4,8.3c0,6.5,1.7,8.3,5,8.4
		C14,32.5,17.4,31.4,17.4,31.4z"/>
	<path id="A_2_" fill="#FFFFFE" d="M47.8,30.5c0.1,1.8,0.7,2.4,2.2,2.6l-0.2,5.1c-4.2,0-5.7-0.6-7.3-1.8c0,0-4.7,1.8-8.9,1.8
		c-5.2,0-7.9-3.2-7.9-8.4c0-5.6,3.2-7.6,9.1-8l6.7-0.5v-1.6c0-2.1-1.3-3.2-3.4-3.2c-4,0-10.5,0.5-10.5,0.5l-0.2-5.1
		c0,0,7-1.2,11-1.2c6,0,9.2,2.4,9.2,8.9V30.5z M35.6,26.3c-2.3,0.2-3.6,1.2-3.6,3.4c0,2.2,1,3.4,2.8,3.4c2.9,0,6.8-1.1,6.8-1.1V26
		L35.6,26.3z"/>
	<rect id="I_1_" x="52.3" y="10.7" fill="#FFFFFE" width="6.2" height="27.6"/>
	<path id="L_2_" fill="#FFFFFE" d="M61.1,0h6.2v38.2h-6.2V0z"/>
	<path id="Y_2_" fill="#FFFFFE" d="M75.3,10.7l5.6,21.4h1.4L88,10.7h6.1L84,50h-6.1l3-11.8h-4.6l-7.1-27.5H75.3z"/>
	<path id="C_2_" fill="#FFFFFE" d="M113.4,11.7l-0.2,5.2c0,0-4.3-0.5-6.4-0.5c-5.5,0-6.8,2-6.8,7.7c0,6.3,1.1,8.4,6.9,8.4
		c2.1,0,6.4-0.5,6.4-0.5l0.2,5.2c0,0-5.5,0.9-8.4,0.9c-8.3,0-11.3-4.1-11.3-14.1c0-9.4,3.3-13.4,11.4-13.4
		C108.1,10.7,113.4,11.7,113.4,11.7z"/>
	<path id="M_2_" fill="#FFFFFE" d="M115.5,38.2V11.4h6.1v1.5c0,0,2.3-1.2,4.7-1.7c1-0.2,2-0.4,2.8-0.4c2.8,0.1,4.7,0.9,6.1,2.3
		c2.4-0.9,6.3-2.3,9.5-2.3c7.4,0,9.5,4,9.5,13.5v14.1H148V26.6c0-7.3-0.1-10.1-4.5-10.1c-2.7,0-5.9,1.3-5.9,1.3
		c0.2,0.4,0.4,4,0.4,6.5v14h-6.2V24.4c0-5.7-0.5-7.9-4.5-7.9c-2.4,0-5.7,1.2-5.7,1.2v20.5H115.5z"/>
	<path id="S_2_" fill="#FFFFFE" d="M176.3,24.8c-1.4-1.7-4-2.6-8.1-3.2c-4.5-0.7-5.7-1.1-5.7-2.7c0-2,1.3-2.7,4.5-2.7
		c3.3,0,9.8,0.8,9.8,0.8l0.1-5.1c0,0-6.4-1.2-10.3-1.2c-5.4,0-10.3,2.3-10.3,8.3c0,5.5,3,7,10,8.1c4.4,0.7,5.2,1.2,5.2,2.8
		c0,2.1-1.4,2.8-5.2,2.8c-2.8,0-9.4-0.8-9.4-0.8l-0.2,5.1c0,0,6.3,1.2,10.2,1.2c2,0,3.8-0.2,5.3-0.7L176.3,24.8z"/>
</g>
</svg>
